# xmcd
#
# Track frame offsets:
#	150
#	19551
#	33933
#	49490
#	67071
#	80151
#	96537
#	110617
#	125861
#	141499
#	156102
#	170373
#	184622
#	201482
#	218674
#	233702
#	249227
#	264769
#	277972
#	294216
#	309309
#
# Disc length: 4335 seconds
#
# Revision: 0
# Processed by: cddbd v1.5.2PL0 Copyright (c) Steve Scherf et al.
# Submitted via: EasyCDDAExtractor 16.0.9.1
#
DISCID=3410ed15
DTITLE=Hott Country Volume 239 CAN
DYEAR=2016
DGENRE=country
TTITLE0=Tim McGraw - Humble And Kind
TTITLE1=Cole Swindell - You Should Be Here
TTITLE2=Old Dominion - Snapback
TTITLE3=Jennifer Nettles - Unlove You
TTITLE4=Washboard Union - Maybe It's The Moonshine [Turbo Diesel Radio Mix]
TTITLE5=Big and Rich ft. Tim McGraw - Lovin' Lately
TTITLE6=Justin Moore - You Look Like I Need A Drink
TTITLE7=Aaron Goodvin - Knock On Wood
TTITLE8=Hank Williams Jr. ft. Eric Church - Are You Ready For The Country
TTITLE9=Charles Esten - Just Like New
TTITLE10=Genevieve Fisher - Blame It On You
TTITLE11=Drake White - Livin' The Dream
TTITLE12=Trace Adkins - Jesus And Jones
TTITLE13=Brian Collins - Shine A Little Love
TTITLE14=David Fanning - What's Next
TTITLE15=Emerson Drive - Good Hurt
TTITLE16=Dave and Whitney - Alibi
TTITLE17=The Lovelocks - Home Sweet Home
TTITLE18=Homegrown Band - She Loves To Ride
TTITLE19=Stephanie Quayle - That's What I'm Talking About
TTITLE20=Blake Reid - Stay Home
EXTD=
EXTT0=
EXTT1=
EXTT2=
EXTT3=
EXTT4=
EXTT5=
EXTT6=
EXTT7=
EXTT8=
EXTT9=
EXTT10=
EXTT11=
EXTT12=
EXTT13=
EXTT14=
EXTT15=
EXTT16=
EXTT17=
EXTT18=
EXTT19=
EXTT20=
PLAYORDER=
